<?xml version="1.0" standalone="no"?>
<!DOCTYPE svg PUBLIC "-//W3C//DTD SVG 20010904//EN"
 "http://www.w3.org/TR/2001/REC-SVG-20010904/DTD/svg10.dtd">
<svg version="1.0" xmlns="http://www.w3.org/2000/svg"
 width="299.000000pt" height="288.000000pt" viewBox="0 0 299.000000 288.000000"
 preserveAspectRatio="xMidYMid meet">
<metadata>
Created by potrace 1.15, written by Peter Selinger 2001-2017
</metadata>
<g transform="translate(0.000000,288.000000) scale(0.100000,-0.100000)"
fill="#000000" stroke="none">
<path d="M2620 2865 c-138 -22 -329 -86 -469 -157 -269 -138 -517 -350 -707
-606 l-44 -60 -43 15 c-177 62 -429 -122 -717 -527 -73 -101 -80 -119 -55
-140 12 -10 31 2 112 72 253 216 420 324 495 316 40 -4 45 -18 16 -49 -21 -23
-119 -250 -118 -274 0 -6 18 -29 40 -50 l40 -39 -57 -29 c-149 -74 -302 -217
-432 -402 -206 -294 -382 -456 -606 -556 -90 -41 -100 -61 -22 -47 111 20 275
90 398 169 38 25 56 33 50 22 -22 -42 -248 -297 -355 -402 -64 -63 -116 -116
-116 -118 0 -37 246 137 539 382 88 73 164 136 170 140 6 3 -23 -42 -65 -102
-88 -126 -249 -392 -241 -399 3 -3 79 68 169 158 100 101 231 218 338 304 190
151 269 226 343 321 53 70 143 212 157 249 l10 24 36 -40 c20 -22 44 -40 53
-40 19 0 165 61 251 105 66 33 85 28 75 -22 -8 -45 -35 -99 -88 -178 -52 -77
-183 -240 -258 -320 -61 -65 -69 -84 -45 -104 12 -10 35 1 120 58 290 195 482
391 538 549 19 55 21 137 4 197 -4 16 12 33 89 89 321 234 577 578 688 921 56
174 68 246 74 423 l5 162 -148 -1 c-82 -1 -183 -7 -224 -14z m305 -34 c14 -23
-66 -41 -320 -71 -93 -11 -188 -20 -210 -19 -37 0 -38 1 -15 10 141 57 524
112 545 80z m-444 -384 c129 -133 252 -261 273 -284 l38 -43 -51 -92 c-185
-333 -470 -603 -870 -823 l-124 -69 -110 113 -109 114 136 136 136 137 -35 34
-35 34 -43 -39 c-23 -22 -85 -81 -137 -132 l-95 -93 -109 109 c-93 94 -107
112 -101 132 10 31 106 197 168 289 132 198 353 429 524 550 89 62 277 170
298 170 6 0 116 -109 246 -243z m-1116 -1097 l-55 -55 -84 85 -85 85 37 79 36
79 103 -109 103 -109 -55 -55z m-121 -49 l37 -38 -150 -144 -151 -143 37 -38
37 -38 149 147 148 148 28 -35 29 -34 -25 -56 c-65 -148 -120 -213 -292 -344
-78 -60 -180 -147 -228 -195 -48 -47 -83 -79 -78 -71 5 8 62 96 128 195 66 99
111 173 101 164 -11 -8 -50 -42 -89 -76 -111 -96 -446 -373 -516 -427 -52 -40
-34 -19 91 110 86 87 176 186 201 219 51 68 112 165 107 171 -2 2 -38 -22 -78
-52 -77 -57 -218 -152 -256 -172 -12 -6 38 48 110 121 74 74 179 195 241 277
61 79 136 172 168 207 62 66 167 143 196 143 9 0 34 -17 55 -39z m451 -181
c-2 -4 -36 -19 -76 -35 l-71 -28 -81 82 -82 81 55 55 54 55 103 -102 c56 -56
100 -104 98 -108z"/>
</g>
</svg>
